# xmcd
#
# Track frame offsets: 
#        150
#        24995
#        43172
#        57097
#        70488
#        82520
#        108412
#        125655
#
# Disc length: 2095 seconds
#
# Revision: 0
# Processed by: cddbd v1.5.2PL0 Copyright (c) Steve Scherf et al.
# Submitted via: ExactAudioCopy v1.0b4
#
DISCID=62082d08
DTITLE=Memphis Slim - Boogie Woogie And Blues Played And Sung By Memph
DTITLE=is Slim (LP)
DYEAR=1961
DGENRE=Blues
TTITLE0=Boogie Woogie Piano Styles
TTITLE1=Alberta
TTITLE2=Scandinavian Boogie
TTITLE3=Between Midnight And Dawn
TTITLE4=46th Street Boogie
TTITLE5=The Big Race
TTITLE6=Chicago Rent Party
TTITLE7=Down South
EXTD=
EXTT0=
EXTT1=
EXTT2=
EXTT3=
EXTT4=
EXTT5=
EXTT6=
EXTT7=
PLAYORDER=
